<svg xmlns="http://www.w3.org/2000/svg" viewBox="0 0 1600 420" width="1600" height="420" font-family="&#39;JetBrains Mono&#39;,monospace">
  <defs>
    <pattern id="g2" width="40" height="40" patternUnits="userSpaceOnUse">
      <path d="M 40 0 L 0 0 0 40" fill="none" stroke="#ff6b1f" stroke-opacity="0.07"></path>
    </pattern>
    <radialGradient id="gl2" cx="20%" cy="30%" r="55%">
      <stop offset="0%" stop-color="#ff6b1f" stop-opacity="0.18"></stop>
      <stop offset="100%" stop-color="#ff6b1f" stop-opacity="0"></stop>
    </radialGradient>
  </defs>
  <rect width="1600" height="420" fill="#07070a"></rect>
  <rect width="1600" height="420" fill="url(#g2)"></rect>
  <rect width="1600" height="420" fill="url(#gl2)"></rect>
  <g stroke="#ff6b1f" stroke-width="2" fill="none">
    <path d="M 14 42 L 14 14 L 42 14"></path>
    <path d="M 1558 14 L 1586 14 L 1586 42"></path>
    <path d="M 14 378 L 14 406 L 42 406"></path>
    <path d="M 1558 406 L 1586 406 L 1586 378"></path>
  </g>
  <text x="72" y="110" font-family="&#39;Archivo Black&#39;,Impact,sans-serif" font-size="62" fill="#f4ede4" letter-spacing="-2">BRING YOUR OWN <tspan fill="#ff6b1f">BRAIN.</tspan></text>
  <text x="1528" y="110" text-anchor="end" font-size="12" letter-spacing="3" fill="#8a8275">11 PROVIDERS · 40+ MODELS · 1 INTERFACE</text>

  <g font-size="14">
    
    <g transform="translate(72,170)">
      <rect width="220" height="80" fill="#ff6b1f" fill-opacity="0.04" stroke="#ff6b1f" stroke-opacity="0.35"></rect>
      <circle cx="206" cy="14" r="3" fill="#ff6b1f"></circle>
      <text x="16" y="36" fill="#f4ede4" font-weight="700">Anthropic</text>
      <text x="16" y="58" fill="#8a8275" font-size="10" letter-spacing="1.4">CLAUDE · OPUS · HAIKU</text>
    </g>
    <g transform="translate(308,170)">
      <rect width="220" height="80" fill="#ff6b1f" fill-opacity="0.04" stroke="#ff6b1f" stroke-opacity="0.35"></rect>
      <circle cx="206" cy="14" r="3" fill="#ff6b1f"></circle>
      <text x="16" y="36" fill="#f4ede4" font-weight="700">OpenAI</text>
      <text x="16" y="58" fill="#8a8275" font-size="10" letter-spacing="1.4">GPT-4O · O3 · O1</text>
    </g>
    <g transform="translate(544,170)">
      <rect width="220" height="80" fill="#ff6b1f" fill-opacity="0.04" stroke="#ff6b1f" stroke-opacity="0.35"></rect>
      <circle cx="206" cy="14" r="3" fill="#ff6b1f"></circle>
      <text x="16" y="36" fill="#f4ede4" font-weight="700">Google</text>
      <text x="16" y="58" fill="#8a8275" font-size="10" letter-spacing="1.4">GEMINI 2.5 · FLASH</text>
    </g>
    <g transform="translate(780,170)">
      <rect width="220" height="80" fill="#ff6b1f" fill-opacity="0.04" stroke="#ff6b1f" stroke-opacity="0.35"></rect>
      <circle cx="206" cy="14" r="3" fill="#ff6b1f"></circle>
      <text x="16" y="36" fill="#f4ede4" font-weight="700">DeepSeek</text>
      <text x="16" y="58" fill="#8a8275" font-size="10" letter-spacing="1.4">CHAT · REASONER</text>
    </g>
    <g transform="translate(1016,170)">
      <rect width="220" height="80" fill="#ff6b1f" fill-opacity="0.04" stroke="#ff6b1f" stroke-opacity="0.35"></rect>
      <circle cx="206" cy="14" r="3" fill="#ff6b1f"></circle>
      <text x="16" y="36" fill="#f4ede4" font-weight="700">Kimi</text>
      <text x="16" y="58" fill="#8a8275" font-size="10" letter-spacing="1.4">MOONSHOT V1</text>
    </g>
    <g transform="translate(1252,170)">
      <rect width="220" height="80" fill="#ff6b1f" fill-opacity="0.04" stroke="#ff6b1f" stroke-opacity="0.35"></rect>
      <circle cx="206" cy="14" r="3" fill="#ff6b1f"></circle>
      <text x="16" y="36" fill="#f4ede4" font-weight="700">Qwen</text>
      <text x="16" y="58" fill="#8a8275" font-size="10" letter-spacing="1.4">MAX · PLUS · QWQ</text>
    </g>
    
    <g transform="translate(72,268)">
      <rect width="220" height="80" fill="#ff6b1f" fill-opacity="0.04" stroke="#ff6b1f" stroke-opacity="0.35"></rect>
      <circle cx="206" cy="14" r="3" fill="#ff6b1f"></circle>
      <text x="16" y="36" fill="#f4ede4" font-weight="700">Zhipu</text>
      <text x="16" y="58" fill="#8a8275" font-size="10" letter-spacing="1.4">GLM-4 · FLASH</text>
    </g>
    <g transform="translate(308,268)">
      <rect width="220" height="80" fill="#ff6b1f" fill-opacity="0.04" stroke="#ff6b1f" stroke-opacity="0.35"></rect>
      <circle cx="206" cy="14" r="3" fill="#ff6b1f"></circle>
      <text x="16" y="36" fill="#f4ede4" font-weight="700">MiniMax</text>
      <text x="16" y="58" fill="#8a8275" font-size="10" letter-spacing="1.4">TEXT-01 · VL-01</text>
    </g>
    <g transform="translate(544,268)">
      <rect width="220" height="80" fill="#ff6b1f" fill-opacity="0.04" stroke="#ff6b1f" stroke-opacity="0.35"></rect>
      <circle cx="206" cy="14" r="3" fill="#ff6b1f"></circle>
      <text x="16" y="36" fill="#f4ede4" font-weight="700">Ollama</text>
      <text x="16" y="58" fill="#8a8275" font-size="10" letter-spacing="1.4">LOCAL · OFFLINE</text>
    </g>
    <g transform="translate(780,268)">
      <rect width="220" height="80" fill="#ff6b1f" fill-opacity="0.04" stroke="#ff6b1f" stroke-opacity="0.35"></rect>
      <circle cx="206" cy="14" r="3" fill="#ff6b1f"></circle>
      <text x="16" y="36" fill="#f4ede4" font-weight="700">LM Studio</text>
      <text x="16" y="58" fill="#8a8275" font-size="10" letter-spacing="1.4">LOCAL · GUI</text>
    </g>
    <g transform="translate(1016,268)">
      <rect width="220" height="80" fill="#ff6b1f" fill-opacity="0.04" stroke="#ff6b1f" stroke-opacity="0.35"></rect>
      <circle cx="206" cy="14" r="3" fill="#ff6b1f"></circle>
      <text x="16" y="36" fill="#f4ede4" font-weight="700">Custom</text>
      <text x="16" y="58" fill="#8a8275" font-size="10" letter-spacing="1.4">OPENAI-COMPAT</text>
    </g>
    <g transform="translate(1252,268)">
      <rect width="220" height="80" fill="#ff6b1f" fill-opacity="0.04" stroke="#ff6b1f" stroke-opacity="0.35"></rect>
      <circle cx="206" cy="14" r="3" fill="#ff6b1f"></circle>
      <text x="16" y="36" fill="#f4ede4" font-weight="700">vLLM</text>
      <text x="16" y="58" fill="#8a8275" font-size="10" letter-spacing="1.4">SELF-HOSTED</text>
    </g>
  </g>
  <text x="800" y="395" text-anchor="middle" font-size="11" letter-spacing="4" fill="#ff6b1f">↓ SWITCH ANYTIME · /model &lt;name&gt; ↓</text>
</svg>